<mxfile host="app.diagrams.net" modified="2023-06-21T09:18:30.947Z" agent="Mozilla/5.0 (Windows NT 10.0; Win64; x64) AppleWebKit/537.36 (KHTML, like Gecko) Chrome/114.0.0.0 Safari/537.36 Edg/114.0.1823.51" version="21.4.0" etag="fuiFOLKBRbFGd2g0T28O" type="github">
  <diagram name="Page-1" id="JoU3lBBTZU910a4oDxxg">
    <mxGraphModel>
      <root>
        <mxCell id="0" />
        <mxCell id="1" parent="0" />
      </root>
    </mxGraphModel>
  </diagram>
</mxfile>
